<svg width="24" height="24" viewBox="0 0 24 24" fill="none" xmlns="http://www.w3.org/2000/svg">
<path d="M23 10C23 8.89 22.1 8 21 8H14.68L15.64 3.43C15.66 3.33 15.67 3.22 15.67 3.11C15.67 2.7 15.5 2.32 15.23 2.05L14.17 1L7.59 7.58C7.22 7.95 7 8.45 7 9V19C7 19.5304 7.21071 20.0391 7.58579 20.4142C7.96086 20.7893 8.46957 21 9 21H18C18.83 21 19.54 20.5 19.84 19.78L22.86 12.73C22.95 12.5 23 12.26 23 12V10ZM1 21H5V9H1V21Z" fill="white"/>
<path d="M15.6875 12.5782L18.3281 12.5781V12.5782L17.1094 12.5782L18.5312 12.5782L18.3281 12.5783L15.6875 12.5782Z" fill="black"/>
<path d="M21.9843 16.2714L20.1562 16.887L20.3593 17.9128L8.57812 16.887L8.78124 14.8352L7.35938 15.4507L7.5625 17.5025L21.7812 18.3232L21.9843 16.2714Z" fill="black"/>
<path d="M12.4372 15.861C13.0466 15.861 12.9789 14.3563 13.0466 13.604L7.15599 6.83325L5.12476 8.67983L10.8122 12.5782C11.2185 13.6724 11.6247 15.861 12.4372 15.861Z" fill="black"/>
<path d="M15.0781 12.1679L15.8906 11.5523L15.6875 12.9886L22.9999 7.24365L22.3906 9.70576L15.2812 13.8093L15.0781 12.1679Z" fill="black"/>
<path d="M15.5198 14.8202L18.1197 12.8V13.8101L16.9198 14.4162L18.3197 14.6182L18.1197 15.6283L15.5198 14.8202Z" fill="black"/>
</svg>
