<svg width="48" height="48" viewBox="0 0 48 48" fill="none" xmlns="http://www.w3.org/2000/svg">
<path d="M33.1177 8.50004C32.3609 7.50004 6.87462 8.50004 6.37484 9.05323C5.87505 9.60642 5.87505 33.5 6.37484 34.5C6.87462 35.5 33.9466 34.3937 34.6605 33.9468C35.3745 33.5 34.6605 24.5426 34.6605 24.5426L42.3748 12.9256L39.8034 9.60642L34.6605 18.4575C34.6605 18.4575 33.8745 9.50004 33.1177 8.50004Z" fill="#994E33" stroke="#111111"/>
<ellipse cx="19.8745" cy="21.5" rx="11" ry="10.5" fill="#F4E9DE"/>
<path d="M12 25.5L12.5 23H14.5L14 24.5L26.5 25.5L27 24L28.5 23.5V26.5L12 25.5Z" fill="#111111"/>
<path d="M15.8745 20C15.8745 21.3807 15.4268 22 14.8745 22C14.3222 22 13.8745 21.3807 13.8745 20C13.8745 18.6193 14.3222 18 14.8745 18C15.4268 18 15.8745 18.6193 15.8745 20Z" fill="#111111"/>
<path d="M25 20C25 21.3807 24.5523 22 24 22C23.4477 22 23 21.3807 23 20C23 18.6193 23.4477 18 24 18C24.5523 18 25 18.6193 25 20Z" fill="#111111"/>
<path d="M16.8745 17L15.8745 18L8.87451 15.5L9.37451 11L16.8745 17Z" fill="#40BF7F"/>
<path d="M22.8745 18.5L21.8745 15.5L23.3745 14.5L23.8745 16L31.8745 7L33.8745 11L22.8745 18.5Z" fill="#40BF7F"/>
<path d="M37.6286 40.2119C37.0695 40.6448 22.433 40.7971 22.1897 38.75C21.9463 36.7028 23.9933 36.4594 23.9933 36.4594C23.9933 36.4594 22.5205 36.1514 22.758 34.286C22.9956 32.4206 24.4987 32.4915 24.4987 32.4915C24.4987 32.4915 22.5778 31.7428 23.8225 29.8852C25.0671 28.0275 32.3174 30.4629 32.3174 30.4629C32.3174 30.4629 30.6587 23.6992 31.2178 23.2663C31.7768 22.8335 34.753 23.2125 35.1857 23.7716C35.6185 24.3308 36.3486 30.4722 36.3486 30.4722C36.3486 30.4722 39.7009 31.8692 40.6296 32.4915C41.5584 33.1138 38.1876 39.7791 37.6286 40.2119Z" fill="#BA7B52" stroke="black"/>
</svg>
